Coordinates
version=1
nRows=43
nColumns=12
inDegrees=yes

Units are S.I. units (second, meters, Newtons, ...)
Angles are in degrees

endheader
time	SC_y	SC_z	SC_x	AC_y	AC_z	AC_x	GH_y	GH_z	GH_yy	EL_x	PS_y
       0.0              -17.61          15.57          42.36          35.45          7.263        -0.7274          112.0          67.47          7.908          122.9          54.28
   0.02006              -17.61          15.57          42.36          35.46          7.264        -0.7301          112.0          67.46          7.927          122.9           54.3
   0.04012              -17.61          15.58          42.36          35.46          7.264        -0.7328          112.0          67.46          7.947          122.9          54.31
   0.06019              -17.61          15.58          42.36          35.47          7.264        -0.7358          112.0          67.45          7.968          122.9          54.33
   0.08025              -17.61          15.58          42.35          35.47          7.265         -0.739          111.9          67.44          7.991          122.9          54.35
    0.1003              -17.61          15.58          42.35          35.48          7.265        -0.7423          111.9          67.43          8.015          122.9          54.37
    0.1204               -17.6          15.58          42.35          35.48          7.266        -0.7459          111.9          67.42          8.041          122.9          54.39
    0.1404               -17.6          15.58          42.35          35.49          7.266        -0.7498          111.9          67.41          8.068          122.9          54.41
    0.1605               -17.6          15.58          42.35           35.5          7.267        -0.7539          111.8          67.39          8.098          122.8          54.43
    0.1806               -17.6          15.58          42.35          35.51          7.267        -0.7583          111.8          67.38           8.13          122.8          54.45
    0.2006               -17.6          15.58          42.35          35.52          7.268         -0.763          111.8          67.37          8.164          122.8          54.48
    0.2207               -17.6          15.58          42.35          35.53          7.268        -0.7681          111.7          67.35            8.2          122.8          54.51
    0.2407              -17.59          15.58          42.35          35.54          7.269        -0.7736          111.7          67.34           8.24          122.8          54.54
    0.2608              -17.59          15.58          42.35          35.55           7.27        -0.7796          111.6          67.32          8.282          122.8          54.57
    0.2809              -17.59          15.59          42.35          35.56           7.27         -0.786          111.6           67.3          8.328          122.8          54.61
    0.3009              -17.59          15.59          42.34          35.57          7.271         -0.793          111.5          67.28          8.378          122.8          54.65
     0.321              -17.58          15.59          42.34          35.59          7.272        -0.8006          111.5          67.26          8.433          122.8          54.69
    0.3411              -17.58          15.59          42.34           35.6          7.273        -0.8088          111.4          67.23          8.492          122.8          54.73
    0.3611              -17.58          15.59          42.34          35.62          7.274        -0.8178          111.4          67.21          8.557          122.8          54.78
    0.3812              -17.57          15.59          42.34          35.64          7.276        -0.8277          111.3          67.18          8.627          122.7          54.84
    0.4012              -17.57           15.6          42.34          35.66          7.277        -0.8385          111.2          67.15          8.705          122.7           54.9
    0.4213              -17.57           15.6          42.33          35.68          7.278        -0.8505          111.1          67.11          8.791          122.7          54.96
    0.4414              -17.56           15.6          42.33           35.7           7.28        -0.8636          111.0          67.07          8.885          122.7          55.04
    0.4614              -17.56           15.6          42.33          35.73          7.282        -0.8782          110.9          67.03           8.99          122.7          55.12
    0.4815              -17.55          15.61          42.32          35.76          7.284        -0.8945          110.8          66.98          9.106          122.7          55.21
    0.5016              -17.54          15.61          42.32          35.79          7.286        -0.9126          110.7          66.93          9.236          122.6          55.31
    0.5216              -17.54          15.61          42.32          35.83          7.288        -0.9329          110.5          66.87          9.382          122.6          55.42
    0.5417              -17.53          15.62          42.31          35.87          7.291        -0.9557          110.4           66.8          9.545          122.6          55.55
    0.5617              -17.52          15.62          42.31          35.92          7.294        -0.9815          110.2          66.73           9.73          122.5          55.69
    0.5818              -17.51          15.63           42.3          35.98          7.298         -1.011          110.0          66.64           9.94          122.5          55.85
    0.6019               -17.5          15.63           42.3          36.04          7.302         -1.044          109.7          66.55          10.18          122.5          56.04
    0.6219              -17.48          15.64          42.29          36.11          7.306         -1.083          109.4          66.43          10.45          122.4          56.25
     0.642              -17.47          15.65          42.28          36.19          7.312         -1.127          109.1          66.31          10.77          122.3          56.49
    0.6621              -17.45          15.66          42.27          36.29          7.318         -1.178          108.7          66.16          11.14          122.3          56.78
    0.6821              -17.43          15.67          42.26           36.4          7.325         -1.238          108.3          65.98          11.57          122.2          57.11
    0.7022               -17.4          15.68          42.24          36.53          7.334         -1.309          107.8          65.77          12.08          122.1           57.5
    0.7222              -17.37           15.7          42.23          36.69          7.344         -1.394          107.2          65.53          12.69          122.0          57.97
    0.7423              -17.33          15.72          42.21          36.88          7.356         -1.495          106.4          65.23          13.41          121.8          58.53
    0.7624              -17.29          15.74          42.18           37.1          7.371         -1.617          105.6          64.88          14.29          121.7          59.21
    0.7824              -17.24          15.77          42.16          37.38          7.389         -1.766          104.5          64.44          15.36          121.5          60.03
    0.8025              -17.17          15.81          42.12          37.72          7.411         -1.951          103.1           63.9          16.68          121.2          61.05
    0.8226              -17.09          15.85          42.08          38.15          7.439         -2.181          101.5          63.23          18.33          120.9          62.33
    0.8426              -16.98           15.9          42.02          38.69          7.473          -2.47          99.36          62.39          20.41          120.5          63.93
